<?xml version="1.0" encoding="UTF-8"?>
<svg version="1.1" xmlns="http://www.w3.org/2000/svg" width="512" height="512">
<path d="M0 0 C168.96 0 337.92 0 512 0 C512 168.96 512 337.92 512 512 C343.04 512 174.08 512 0 512 C0 343.04 0 174.08 0 0 Z " fill="#F7F8FA" transform="translate(0,0)"/>
<path d="M0 0 C0.67310211 0.00398804 1.34620422 0.00797607 2.03970337 0.01208496 C12.5095296 0.08463384 22.46986231 0.70015758 32.625 3.375 C33.64207031 3.64183594 34.65914062 3.90867188 35.70703125 4.18359375 C49.50671873 8.34012612 61.85672994 15.34350481 73.87133789 23.14233398 C92.77405254 35.29505399 114.65497058 39.25204816 136.66235352 34.85546875 C156.77767036 30.36719368 173.02695292 20.30827541 185.73828125 3.9296875 C187.625 2.375 187.625 2.375 189.87890625 2.31640625 C193.75119076 3.80913612 196.88742719 6.03103512 200.25 8.4375 C200.95133057 8.93266113 201.65266113 9.42782227 202.37524414 9.93798828 C203.79208049 10.94018426 205.20658299 11.94568838 206.61865234 12.95458984 C208.42339241 14.23227027 210.24520494 15.47616826 212.08203125 16.70703125 C213.06558594 17.38121094 214.04914063 18.05539063 215.0625 18.75 C215.92746094 19.33523437 216.79242188 19.92046875 217.68359375 20.5234375 C219.625 22.375 219.625 22.375 220.6640625 24.796875 C220.60817984 28.48513055 219.11362435 29.65324579 216.5625 32.25 C215.30373047 33.55904297 215.30373047 33.55904297 214.01953125 34.89453125 C213.22933594 35.71308594 212.43914062 36.53164063 211.625 37.375 C210.65604768 38.55385132 209.69609627 39.74022773 208.75 40.9375 C190.7876946 61.89352296 159.55065264 75.10862691 132.625 77.375 C99.25516296 78.89248045 72.11690645 72.27928484 44.3125 53.5625 C37.79443205 49.20174116 31.13425755 46.57346231 23.625 44.375 C22.63628906 44.05660156 21.64757812 43.73820312 20.62890625 43.41015625 C-0.1674459 37.54174479 -22.49744384 41.53868012 -41.375 51.375 C-51.63549326 57.76922044 -60.78347414 65.98548117 -68.375 75.375 C-71.98643798 74.7382712 -74.3710897 73.21294232 -77.3671875 71.13671875 C-78.79611328 70.15348633 -78.79611328 70.15348633 -80.25390625 69.15039062 C-81.24261719 68.46138672 -82.23132813 67.77238281 -83.25 67.0625 C-85.20561397 65.71207275 -87.16134003 64.36180779 -89.1171875 63.01171875 C-90.02952148 62.37927246 -90.94185547 61.74682617 -91.88183594 61.09521484 C-94.69242828 59.15598319 -97.52426711 57.254551 -100.375 55.375 C-100.0558212 49.33340132 -98.15566493 46.22458295 -94 42.0625 C-93.45835205 41.50199951 -92.9167041 40.94149902 -92.35864258 40.36401367 C-90.71581666 38.68144003 -89.05013667 37.02534606 -87.375 35.375 C-86.47910156 34.48039062 -85.58320312 33.58578125 -84.66015625 32.6640625 C-61.8563295 10.92327128 -31.36201486 -0.33805017 0 0 Z " fill="#3A74B9" transform="translate(197.375,236.625)"/>
<path d="M0 0 C25.67877227 21.660691 42.66636943 49.20038334 47.171875 82.83203125 C47.48994647 87.49707947 47.53164288 92.16888599 47.171875 96.83203125 C45.32910991 98.67479634 42.74223741 97.96077536 40.29052734 97.97097778 C39.46762207 97.96895355 38.6447168 97.96692932 37.796875 97.96484375 C36.95721191 97.96580048 36.11754883 97.9667572 35.25244141 97.96774292 C33.47363205 97.96842473 31.69482023 97.96657042 29.91601562 97.96240234 C27.18353724 97.95705408 24.45122324 97.9623473 21.71875 97.96875 C19.9947913 97.96808922 18.27083271 97.96680806 16.546875 97.96484375 C15.72396973 97.96686798 14.90106445 97.96889221 14.05322266 97.97097778 C8.28682554 97.94698179 8.28682554 97.94698179 7.171875 96.83203125 C6.83972975 94.75665233 6.51373916 92.68006548 6.22192383 90.59863281 C2.94815628 67.30968982 -6.60895997 47.84845248 -24.640625 32.45703125 C-30.89353244 27.75726534 -37.84815613 24.30657327 -44.828125 20.83203125 C-45.6428125 20.39632812 -46.4575 19.960625 -47.296875 19.51171875 C-62.842977 11.68065991 -86.56232995 12.78963479 -102.828125 17.83203125 C-116.24298054 22.34927852 -127.83859873 29.85969866 -137.828125 39.83203125 C-138.52550781 40.5178125 -139.22289062 41.20359375 -139.94140625 41.91015625 C-153.48189189 56.10794702 -160.44276223 75.43510174 -161.6171875 94.78515625 C-161.828125 96.83203125 -161.828125 96.83203125 -162.828125 97.83203125 C-165.7124632 97.92068333 -168.57274658 97.94724421 -171.45703125 97.9296875 C-172.75337746 97.92756508 -172.75337746 97.92756508 -174.07591248 97.92539978 C-176.84751792 97.91978364 -179.6190438 97.90722844 -182.390625 97.89453125 C-184.2649728 97.88951833 -186.13932185 97.88495506 -188.01367188 97.88085938 C-192.61852044 97.86980897 -197.22330921 97.85253355 -201.828125 97.83203125 C-202.12908061 79.27577697 -202.12908061 79.27577697 -200.265625 71.39453125 C-200.08999023 70.61505127 -199.91435547 69.83557129 -199.73339844 69.0324707 C-192.13130453 37.27935494 -171.66632501 8.93314773 -143.828125 -8.16796875 C-142.89097656 -8.77769531 -141.95382813 -9.38742188 -140.98828125 -10.015625 C-97.85190778 -36.93887593 -39.03910433 -31.55898398 0 0 Z " fill="#AFCA3A" transform="translate(334.828125,100.16796875)"/>
<path d="M0 0 C4.17763805 3.49843496 8.130536 7.16583638 12 11 C12.81726563 11.804375 13.63453125 12.60875 14.4765625 13.4375 C20.69948935 19.93842702 24.85532452 27.06565337 29 35 C29.33725098 35.61617188 29.67450195 36.23234375 30.02197266 36.8671875 C32.74406079 41.99594517 34.37826743 47.11924598 35.75 52.75 C35.965354 53.62382324 36.18070801 54.49764648 36.40258789 55.39794922 C37.90828935 61.84380533 39.15888821 68.38823777 38 75 C35.425675 77.574325 33.69287354 77.24775746 30.18347168 77.27789307 C29.39073853 77.2738446 28.59800537 77.26979614 27.78125 77.265625 C26.96756958 77.26753845 26.15388916 77.2694519 25.31555176 77.27142334 C23.593991 77.27278527 21.87241997 77.26908828 20.15087891 77.26074219 C17.5105083 77.25004258 14.87081811 77.260637 12.23046875 77.2734375 C10.55989433 77.27211591 8.88932033 77.26955352 7.21875 77.265625 C6.02965027 77.27169769 6.02965027 77.27169769 4.81652832 77.27789307 C-0.77007973 77.22992027 -0.77007973 77.22992027 -3 75 C-3.23828125 72.85546875 -3.23828125 72.85546875 -3.3125 70.1875 C-4.42838038 55.73779469 -12.18171895 43.4802817 -22.98828125 34.1796875 C-26.55467711 31.59856054 -30.2102762 29.50207955 -34.125 27.5 C-34.78169678 27.16145996 -35.43839355 26.82291992 -36.11499023 26.47412109 C-47.1652427 21.14560629 -61.36663506 21.61131659 -72.97265625 24.8828125 C-80.54153637 27.67597342 -87.33490387 31.24638674 -93 37 C-93.66 37 -94.32 37 -95 37 C-95.27199219 37.58523438 -95.54398438 38.17046875 -95.82421875 38.7734375 C-96.97966487 40.96149162 -98.26246014 42.70278698 -99.8125 44.625 C-106.33323611 53.18645548 -109.91768821 62.3544213 -110.65625 73.08203125 C-111 75 -111 75 -113 77 C-115.78510224 77.18753311 -118.46899646 77.25561232 -121.25390625 77.23046875 C-122.06995834 77.23001053 -122.88601044 77.22955231 -123.72679138 77.2290802 C-125.45255995 77.22605744 -127.17832578 77.21817042 -128.90405273 77.20581055 C-131.55527333 77.18754978 -134.20614496 77.18530086 -136.85742188 77.18554688 C-138.53125304 77.18063194 -140.20508182 77.17480373 -141.87890625 77.16796875 C-142.67680069 77.16685593 -143.47469513 77.1657431 -144.29676819 77.16459656 C-149.88395099 77.11604901 -149.88395099 77.11604901 -151 76 C-152.82867748 54.3856318 -144.7194988 33.5571181 -131 17 C-130.28972656 16.13890625 -129.57945312 15.2778125 -128.84765625 14.390625 C-96.52878139 -23.09699786 -39.70447384 -29.64831889 0 0 Z " fill="#3C8C3A" transform="translate(314,349)"/>
<path d="M0 0 C6.57408755 3.64421861 11.46312456 8.79889111 13.8125 16 C14.981371 24.00984234 13.41736687 30.37178253 8.8125 37 C4.26056437 42.23693565 -1.31484355 45.31611839 -8.19140625 46.28125 C-14.76046355 46.58977715 -19.92901489 44.46137272 -25.375 40.9375 C-30.10807336 36.56751172 -32.76188657 31.08662258 -33.63671875 24.7421875 C-33.89871257 16.95464715 -32.9633187 11.09358562 -27.609375 5.2890625 C-19.56483684 -2.13945247 -10.13490659 -4.55916771 0 0 Z " fill="#EC752B" transform="translate(267.1875,175)"/>
<path d="M0 0 C4.71579382 4.82297095 7.82712195 11.04903669 8.0625 17.875 C7.94729596 24.3159533 6.18801761 30.05382455 1.87890625 34.9296875 C-4.96119335 41.16206559 -10.60563394 42.34123287 -19.80078125 42.1875 C-27.16513642 41.3868453 -31.40646418 37.12439718 -36.0234375 31.65625 C-40.12947524 25.48411683 -39.92793801 18.98299821 -39.25 11.8125 C-37.50755061 5.09635012 -32.78948541 0.71826998 -27.25 -3.1875 C-18.11577524 -7.75461238 -8.09156633 -5.44624657 0 0 Z " fill="#ED7328" transform="translate(273.25,407.1875)"/>
<path d="M0 0 C-1.38922154 4.44236945 -3.42615521 6.62411502 -6.9375 9.625 C-11.08283983 13.19065213 -11.08283983 13.19065213 -15 17 C-15.99 16.67 -16.98 16.34 -18 16 C-4.05533597 0 -4.05533597 0 0 0 Z " fill="#518F50" transform="translate(201,350)"/>
<path d="M0 0 C5.05401044 5.05401044 7.10299631 9.34135746 7.375 16.5 C7.23006811 21.1297687 5.84244139 24.77773848 4 29 C3.67 29 3.34 29 3 29 C3 27.02 3 25.04 3 23 C3.66 23 4.32 23 5 23 C5 19.04 5 15.08 5 11 C4.34 11 3.68 11 3 11 C2.01 7.37 1.02 3.74 0 0 Z " fill="#DE7C40" transform="translate(274,409)"/>
<path d="M0 0 C0.99 0.495 0.99 0.495 2 1 C2.33 3.97 2.66 6.94 3 10 C14.88 10 26.76 10 39 10 C39 10.33 39 10.66 39 11 C33.76726669 11.04935824 28.53466824 11.08569949 23.30175781 11.10986328 C21.52080933 11.11993431 19.73987743 11.13359185 17.95898438 11.15087891 C15.40230217 11.17507913 12.84583815 11.18647184 10.2890625 11.1953125 C9.49005524 11.20563507 8.69104797 11.21595764 7.86782837 11.22659302 C5.9104278 11.22699226 3.95356923 11.12241069 2 11 C0 9 0 9 -0.1953125 6.8359375 C-0.17210937 6.02382813 -0.14890625 5.21171875 -0.125 4.375 C-0.10695313 3.55773437 -0.08890625 2.74046875 -0.0703125 1.8984375 C-0.04710937 1.27195312 -0.02390625 0.64546875 0 0 Z " fill="#85B483" transform="translate(311,415)"/>
<path d="M0 0 C0.33 0.99 0.66 1.98 1 3 C-3.7191839 6.93986913 -9.14246755 8.11365347 -15.25390625 7.93359375 C-18.86612788 7.50177219 -22.44664884 6.77729557 -26 6 C-26 5.34 -26 4.68 -26 4 C-26.66 4 -27.32 4 -28 4 C-27.67 3.34 -27.34 2.68 -27 2 C-25.2675 2.7425 -25.2675 2.7425 -23.5 3.5 C-15.7437211 6.34396893 -10.387961 5.11792537 -3.00390625 1.97265625 C-1.05046797 1.15959 -1.05046797 1.15959 0 0 Z " fill="#FEF2E6" transform="translate(272,215)"/>
<path d="M0 0 C0.91571777 -0.00080566 1.83143555 -0.00161133 2.77490234 -0.00244141 C7.00796471 0.03259406 11.00131489 0.10913046 15.125 1.1875 C15.125 1.5175 15.125 1.8475 15.125 2.1875 C14.43349854 2.18226318 13.74199707 2.17702637 13.02954102 2.17163086 C9.91553648 2.150925 6.80154639 2.13786037 3.6875 2.125 C2.59888672 2.11662109 1.51027344 2.10824219 0.38867188 2.09960938 C-1.16303711 2.09477539 -1.16303711 2.09477539 -2.74609375 2.08984375 C-3.70443115 2.08460693 -4.66276855 2.07937012 -5.65014648 2.07397461 C-7.84785339 1.9369687 -7.84785339 1.9369687 -8.875 3.1875 C-11.56735776 3.42428716 -14.23998156 3.60948025 -16.9375 3.75 C-18.07541992 3.81477539 -18.07541992 3.81477539 -19.23632812 3.88085938 C-21.11565438 3.98723633 -22.99530244 4.08789934 -24.875 4.1875 C-17.64264929 -0.63406714 -8.40591859 0.00722282 0 0 Z " fill="#EEF6CD" transform="translate(256.875,113.8125)"/>
<path d="M0 0 C0.625 1.875 0.625 1.875 1 4 C-1.26986168 6.26986168 -3.01085168 6.88775876 -6 8 C-6.71285156 8.34675781 -7.42570312 8.69351562 -8.16015625 9.05078125 C-11.83581551 10.27937162 -15.29821384 10.25371943 -19.125 10.1875 C-19.84042969 10.18685547 -20.55585938 10.18621094 -21.29296875 10.18554688 C-24.45159104 10.15897902 -26.98430662 10.00523113 -30 9 C-30 8.34 -30 7.68 -30 7 C-29.47921875 7.15855469 -28.9584375 7.31710937 -28.421875 7.48046875 C-20.83195788 9.10862839 -12.32909741 9.22671089 -5.5546875 5.15625 C-3.48190502 3.61468313 -1.68068627 1.96080065 0 0 Z " fill="#FEE1C8" transform="translate(276,440)"/>
<path d="M0 0 C0.33 0.99 0.66 1.98 1 3 C-0.30136618 4.46403695 -1.60318174 5.92768627 -2.91015625 7.38671875 C-4.29810031 9.10725012 -4.29810031 9.10725012 -3.9375 12.125 C-3.13507167 14.58578022 -2.29124778 16.76183718 -1 19 C-4.465 17.02 -4.465 17.02 -8 15 C-7.85562749 8.07011948 -4.77744657 4.80239407 0 0 Z " fill="#4A77B1" transform="translate(105,277)"/>
<path d="M0 0 C0.33 1.32 0.66 2.64 1 4 C0.34 4 -0.32 4 -1 4 C-1.12117187 4.59167969 -1.24234375 5.18335938 -1.3671875 5.79296875 C-2.26744643 10.03803585 -3.20456621 14.02439661 -5 18 C-5.66 18 -6.32 18 -7 18 C-7 19.65 -7 21.3 -7 23 C-7.66 23 -8.32 23 -9 23 C-9.33 24.32 -9.66 25.64 -10 27 C-11 25 -11 25 -10.53442383 23.23168945 C-10.26138428 22.53261475 -9.98834473 21.83354004 -9.70703125 21.11328125 C-9.40603516 20.33919922 -9.10503906 19.56511719 -8.79492188 18.76757812 C-8.30862305 17.55231445 -8.30862305 17.55231445 -7.8125 16.3125 C-7.35520508 15.12624023 -7.35520508 15.12624023 -6.88867188 13.91601562 C-4.95471116 9.00610698 -2.72746289 4.5175494 0 0 Z " fill="#BACE65" transform="translate(148,137)"/>
<path d="M0 0 C2.75167577 3.2858246 4.21933799 6.63627487 5.75 10.625 C6.19859375 11.77226562 6.6471875 12.91953125 7.109375 14.1015625 C8 17 8 17 7 19 C6.67 17.68 6.34 16.36 6 15 C4.02 15.99 4.02 15.99 2 17 C2.03480469 16.09507812 2.03480469 16.09507812 2.0703125 15.171875 C2.08835937 14.37265625 2.10640625 13.5734375 2.125 12.75 C2.14820313 11.96109375 2.17140625 11.1721875 2.1953125 10.359375 C1.98073582 7.76728871 1.16541705 6.29412805 0 4 C0 2.68 0 1.36 0 0 Z " fill="#B6CC59" transform="translate(368,141)"/>
<path d="M0 0 C0.33 0.66 0.66 1.32 1 2 C0.67 2.66 0.34 3.32 0 4 C-0.66 4 -1.32 4 -2 4 C-2.2784375 4.86625 -2.2784375 4.86625 -2.5625 5.75 C-4.76061982 9.19053538 -7.31736071 10.25559192 -11 12 C-11.99 11.67 -12.98 11.34 -14 11 C-13.15695312 10.37351562 -12.31390625 9.74703125 -11.4453125 9.1015625 C-10.33847821 8.27612676 -9.23171086 7.45060124 -8.125 6.625 C-7.56941406 6.2125 -7.01382812 5.8 -6.44140625 5.375 C-4.1649876 3.6745427 -2.0120881 2.0120881 0 0 Z " fill="#527DB6" transform="translate(374,251)"/>
<path d="M0 0 C4.04982861 4.04982861 4.125 11.62442948 4.125 17.1875 C4.08375 18.115625 4.0425 19.04375 4 20 C3.67 18.68 3.34 17.36 3 16 C2.34 16 1.68 16 1 16 C0.67 10.72 0.34 5.44 0 0 Z " fill="#E8F1C5" transform="translate(338,176)"/>
<path d="M0 0 C0.2784375 0.8353125 0.2784375 0.8353125 0.5625 1.6875 C2.37924167 4.61008442 4.56755595 5.93161032 7.44140625 7.75390625 C9 9 9 9 10 12 C10.66 12.66 11.32 13.32 12 14 C9 14 9 14 7.60546875 12.64453125 C7.13753906 12.03996094 6.66960937 11.43539062 6.1875 10.8125 C3.40285132 7.37879787 0.47192842 4.72794376 -3 2 C-2.01 1.34 -1.02 0.68 0 0 Z " fill="#B6CB5E" transform="translate(312,130)"/>
<path d="M0 0 C0 0.99 0 1.98 0 3 C-4.19840281 6.86253059 -9.88142942 9.54308612 -15 12 C-10.58990583 7.14889642 -5.41995647 3.651893 0 0 Z " fill="#4B77AC" transform="translate(133,254)"/>
<path d="M0 0 C0.66 0.33 1.32 0.66 2 1 C0.6875 3.5 0.6875 3.5 -1 6 C-1.99 6 -2.98 6 -4 6 C-4 6.99 -4 7.98 -4 9 C-4.66 9 -5.32 9 -6 9 C-6.33 10.32 -6.66 11.64 -7 13 C-7.33 12.01 -7.66 11.02 -8 10 C-5.78310719 6.14096436 -3.25519625 3.02268223 0 0 Z " fill="#E18046" transform="translate(243,406)"/>
<path d="M0 0 C-0.33 0.66 -0.66 1.32 -1 2 C-1.515625 1.835 -2.03125 1.67 -2.5625 1.5 C-8.50196125 0.28164897 -13.27648175 1.31661228 -19 3 C-19.66 2.67 -20.32 2.34 -21 2 C-14.15596715 -1.57079975 -7.46887895 -2.12905975 0 0 Z " fill="#DF834C" transform="translate(266,403)"/>
<path d="M0 0 C1.98 0 3.96 0 6 0 C6.66 1.65 7.32 3.3 8 5 C8.33 5 8.66 5 9 5 C9 6.65 9 8.3 9 10 C8.443125 9.278125 7.88625 8.55625 7.3125 7.8125 C5.02090666 5.02542701 2.58540143 2.51358472 0 0 Z " fill="#FCEFDF" transform="translate(270,405)"/>
<path d="M0 0 C1.875 0.3125 1.875 0.3125 4 1 C6 4 6 4 6 7 C6.99 7.33 7.98 7.66 9 8 C9.33 9.98 9.66 11.96 10 14 C6.28919117 9.57557408 3.15422267 4.82596069 0 0 Z " fill="#E4F7E5" transform="translate(330,364)"/>
<path d="M0 0 C0.33 0.99 0.66 1.98 1 3 C-0.0828125 3.804375 -0.0828125 3.804375 -1.1875 4.625 C-4.247842 7.2092888 -6.51220011 9.87248014 -9 13 C-9.66 12.67 -10.32 12.34 -11 12 C-3.70159453 3.55353075 -3.70159453 3.55353075 0 0 Z " fill="#F2FAD8" transform="translate(201,135)"/>
<path d="M0 0 C1.32 0.66 2.64 1.32 4 2 C2.74057614 3.19959375 1.46704714 4.38439443 0.1875 5.5625 C-0.87404297 6.55443359 -0.87404297 6.55443359 -1.95703125 7.56640625 C-2.63121094 8.03949219 -3.30539062 8.51257813 -4 9 C-4.99 8.67 -5.98 8.34 -7 8 C-6.34 7.01 -5.68 6.02 -5 5 C-3.68 5 -2.36 5 -1 5 C-0.67 3.35 -0.34 1.7 0 0 Z " fill="#E17E43" transform="translate(273,438)"/>
<path d="M0 0 C0.99 0.33 1.98 0.66 3 1 C1.34832443 4.5786304 -0.78286492 7.74820188 -3 11 C-3.33 9.68 -3.66 8.36 -4 7 C-3.34 7 -2.68 7 -2 7 C-1.855625 6.030625 -1.71125 5.06125 -1.5625 4.0625 C-1 1 -1 1 0 0 Z " fill="#F3F9DE" transform="translate(157,118)"/>
<path d="M0 0 C0 3 0 3 -2.1875 5.26171875 C-3.115625 6.06222656 -4.04375 6.86273438 -5 7.6875 C-5.928125 8.49574219 -6.85625 9.30398437 -7.8125 10.13671875 C-8.8953125 11.05904297 -8.8953125 11.05904297 -10 12 C-10.66 11.67 -11.32 11.34 -12 11 C-10.37807179 9.35113941 -8.75236228 7.7059976 -7.125 6.0625 C-6.22007812 5.14597656 -5.31515625 4.22945313 -4.3828125 3.28515625 C-2 1 -2 1 0 0 Z " fill="#B4C857" transform="translate(180,100)"/>
<path d="M0 0 C0.33 0 0.66 0 1 0 C1.40368295 6.45892714 0.5915262 11.06108578 -2 17 C-2.33 17 -2.66 17 -3 17 C-3 15.02 -3 13.04 -3 11 C-2.34 11 -1.68 11 -1 11 C-0.67 7.37 -0.34 3.74 0 0 Z " fill="#DC834C" transform="translate(280,421)"/>
<path d="M0 0 C-2.51066469 3.05906926 -4.90059933 3.75191278 -8.6875 4.6875 C-9.68136719 4.93886719 -10.67523438 5.19023437 -11.69921875 5.44921875 C-12.45847656 5.63097656 -13.21773437 5.81273437 -14 6 C-11.72698066 3.45655714 -9.54913519 2.12383563 -6.4375 0.75 C-5.65246094 0.39421875 -4.86742187 0.0384375 -4.05859375 -0.328125 C-2 -1 -2 -1 0 0 Z " fill="#579257" transform="translate(224,338)"/>
<path d="M0 0 C0.33 0.99 0.66 1.98 1 3 C-0.90401138 4.90401138 -2.33425686 5.93520439 -5.046875 6.19921875 C-7.03233273 6.1886578 -9.0169914 6.09915043 -11 6 C-8.61542052 4.41028035 -6.3695876 3.13258407 -3.8125 1.875 C-3.09707031 1.52179688 -2.38164062 1.16859375 -1.64453125 0.8046875 C-1.10183594 0.53914062 -0.55914062 0.27359375 0 0 Z " fill="#FCE6D6" transform="translate(272,215)"/>
<path d="M0 0 C0.33 0.99 0.66 1.98 1 3 C-1.31 5.31 -3.62 7.62 -6 10 C-6.66 9.67 -7.32 9.34 -8 9 C-6.85459775 7.68712379 -5.70866567 6.37470979 -4.5625 5.0625 C-3.92441406 4.33160156 -3.28632813 3.60070312 -2.62890625 2.84765625 C-1.77458541 1.87860647 -0.91348825 0.91348825 0 0 Z " fill="#B3C853" transform="translate(167,112)"/>
<path d="M0 0 C3.33333333 3.33333333 6.66666667 6.66666667 10 10 C9.67 10.66 9.34 11.32 9 12 C7.99403703 11.0479279 6.99538437 10.08812654 6 9.125 C5.443125 8.59132812 4.88625 8.05765625 4.3125 7.5078125 C3 6 3 6 3 4 C2.01 4 1.02 4 0 4 C0 2.68 0 1.36 0 0 Z " fill="#F0F7D0" transform="translate(316,138)"/>
<path d="M0 0 C0.66 0.33 1.32 0.66 2 1 C-0.35468455 3.72647685 -2.5408417 4.98756342 -6 6 C-8.16015625 5.546875 -8.16015625 5.546875 -10 5 C-8.38007835 4.13624104 -6.75388139 3.28424146 -5.125 2.4375 C-4.22007812 1.96183594 -3.31515625 1.48617188 -2.3828125 0.99609375 C-1.20332031 0.50302734 -1.20332031 0.50302734 0 0 Z " fill="#DBF2DD" transform="translate(238,374)"/>
<path d="M0 0 C1.70884005 1.62339805 3.37446717 3.29319053 5 5 C5 5.66 5 6.32 5 7 C3.68 7.33 2.36 7.66 1 8 C0.02391783 5.07175348 -0.08226668 3.04386724 0 0 Z " fill="#E67B3E" transform="translate(274,181)"/>
<path d="M0 0 C1 3 1 3 0.07421875 5.04296875 C-0.61220703 6.10451172 -0.61220703 6.10451172 -1.3125 7.1875 C-1.76238281 7.90292969 -2.21226562 8.61835938 -2.67578125 9.35546875 C-3.11277344 9.89816406 -3.54976562 10.44085938 -4 11 C-4.66 11 -5.32 11 -6 11 C-4.54955729 6.89041233 -2.48889248 3.56741255 0 0 Z " fill="#EEF6D0" transform="translate(189,148)"/>
<path d="M0 0 C1.32 0.33 2.64 0.66 4 1 C0.535 3.97 0.535 3.97 -3 7 C-3.1875 4.625 -3.1875 4.625 -3 2 C-2.01 1.34 -1.02 0.68 0 0 Z " fill="#F0F7D5" transform="translate(169,106)"/>
<path d="M0 0 C1.32 0.33 2.64 0.66 4 1 C4 1.66 4 2.32 4 3 C4.99 3 5.98 3 7 3 C7.33 4.65 7.66 6.3 8 8 C6.85073734 7.04578192 5.70569459 6.08647955 4.5625 5.125 C3.92441406 4.59132813 3.28632813 4.05765625 2.62890625 3.5078125 C1 2 1 2 0 0 Z " fill="#DAEFD8" transform="translate(320,354)"/>
<path d="M0 0 C3.72284268 0.50308685 5.57327341 1.11103977 8 4 C8.66 4.66 9.32 5.32 10 6 C9.01 6.495 9.01 6.495 8 7 C6.66382648 6.02471263 5.3311249 5.04466681 4 4.0625 C3.2575 3.51722656 2.515 2.97195313 1.75 2.41015625 C1.1725 1.94480469 0.595 1.47945313 0 1 C0 0.67 0 0.34 0 0 Z " fill="#4C78AD" transform="translate(111,300)"/>
<path d="M0 0 C-0.33 0.99 -0.66 1.98 -1 3 C-4.5625 4.6875 -4.5625 4.6875 -8 6 C-8.66 5.34 -9.32 4.68 -10 4 C-8.71086513 3.32845067 -7.41859796 2.66291141 -6.125 2 C-5.40570313 1.62875 -4.68640625 1.2575 -3.9453125 0.875 C-2 0 -2 0 0 0 Z " fill="#517BB1" transform="translate(150,246)"/>
<path d="M0 0 C0.99 0.495 0.99 0.495 2 1 C2.4140625 3.06640625 2.4140625 3.06640625 2.625 5.5625 C2.69976562 6.38878906 2.77453125 7.21507812 2.8515625 8.06640625 C2.92503906 9.02353516 2.92503906 9.02353516 3 10 C2.01 9.67 1.02 9.34 0 9 C0 6.03 0 3.06 0 0 Z " fill="#689867" transform="translate(311,415)"/>
<path d="M0 0 C0.66 0 1.32 0 2 0 C1.25 2.4375 1.25 2.4375 0 5 C-2.125 5.8125 -2.125 5.8125 -4 6 C-2.84826645 3.53199953 -1.95216435 1.95216435 0 0 Z " fill="#4A8948" transform="translate(199,350)"/>
<path d="M0 0 C0 0.66 0 1.32 0 2 C-2.40545638 3.20272819 -3.94996953 3.10071472 -6.625 3.0625 C-7.85089844 3.04896484 -7.85089844 3.04896484 -9.1015625 3.03515625 C-10.04128906 3.01775391 -10.04128906 3.01775391 -11 3 C-7.20844146 1.05276952 -4.29965574 0 0 0 Z " fill="#5C86B7" transform="translate(343,270)"/>
<path d="M0 0 C2.64 0 5.28 0 8 0 C8.33 1.32 8.66 2.64 9 4 C6.03 3.01 3.06 2.02 0 1 C0 0.67 0 0.34 0 0 Z " fill="#FCE3D2" transform="translate(262,173)"/>
<path d="M0 0 C0.66 0 1.32 0 2 0 C0.7508258 3.45925163 -0.67527795 6.14693203 -3 9 C-3.25532751 5.93606987 -3.21861333 4.36766788 -1.625 1.6875 C-0.820625 0.8521875 -0.820625 0.8521875 0 0 Z " fill="#E4F8E6" transform="translate(175,374)"/>
<path d="M0 0 C2.97 0.33 5.94 0.66 9 1 C8.01 2.485 8.01 2.485 7 4 C3.38144425 3.37611108 2.8290723 2.8290723 0 0 Z " fill="#4F7BAE" transform="translate(122,308)"/>
<path d="M0 0 C0.625 1.875 0.625 1.875 1 4 C0.34 4.66 -0.32 5.32 -1 6 C-1.99 6 -2.98 6 -4 6 C-2.84826645 3.53199953 -1.95216435 1.95216435 0 0 Z " fill="#FDF1E2" transform="translate(276,440)"/>
<path d="M0 0 C2.88437779 1.29299694 4.87219421 2.65941363 7 5 C4.69 4.67 2.38 4.34 0 4 C0 2.68 0 1.36 0 0 Z " fill="#E4F2FB" transform="translate(113,303)"/>
<path d="M0 0 C0.99 0.33 1.98 0.66 3 1 C1.37660195 2.70884005 -0.29319053 4.37446717 -2 6 C-2.66 6 -3.32 6 -4 6 C-4 5.01 -4 4.02 -4 3 C-3.01 3 -2.02 3 -1 3 C-0.67 2.01 -0.34 1.02 0 0 Z " fill="#4D77AD" transform="translate(397,282)"/>
<path d="M0 0 C0.99 0.33 1.98 0.66 3 1 C0.1875 3.0625 0.1875 3.0625 -3 5 C-3.99 4.67 -4.98 4.34 -6 4 C-3.1875 1.9375 -3.1875 1.9375 0 0 Z " fill="#4A78AF" transform="translate(366,258)"/>
</svg>
